
SiMBALORD PRESENTS
... A UKB RELEASE


TiTLE: Underworld Awakening
TYPE : DVDRip x264
SiZE : 962 MB (1,009,140,661 bytes)


PLOT : When human forces discover the existence of the 
Vampire and Lycan clans, a war to eradicate both species 
commences. The vampire warrioress Selene leads the battle against humankind. 


CAST :
Kate Beckinsale 	... 	Selene
Stephen Rea     	... 	Dr. Jacob Lane
Michael Ealy    	... 	Detective Sebastian
Theo James      	... 	David
India Eisley    	... 	Eve
Sandrine Holt    	... 	Lida
Charles Dance 	    ... 	Thomas
Kris Holden-Ried 	... 	Quint 


iMDB : tt1496025


General
Complete name                            : Underworld.Awakening[x264][Simbalord.UKB.Release].mp4
Format                                   : MPEG-4
Format profile                           : Base Media
Codec ID                                 : isom
File size                                : 962 MiB
Duration                                 : 1h 25mn
Overall bit rate                         : 1 580 Kbps

Video
ID                                       : 1
Format                                   : AVC
Format/Info                              : Advanced Video Codec
Format profile                           : High@L4.1
Format settings, CABAC                   : Yes
Format settings, ReFrames                : 3 frames
Codec ID                                 : avc1
Codec ID/Info                            : Advanced Video Coding
Duration                                 : 1h 25mn
Bit rate                                 : 1 420 Kbps
Width                                    : 720 pixels
Height                                   : 296 pixels
Display aspect ratio                     : 2.40:1
Frame rate mode                          : Constant
Frame rate                               : 25.000 fps
Color space                              : YUV
Chroma subsampling                       : 4:2:0
Bit depth                                : 8 bits
Scan type                                : Progressive
Bits/(Pixel*Frame)                       : 0.267
Stream size                              : 842 MiB (87%)
Writing library                          : x264 core 116 r2044M 392e762
Encoding settings                        : cabac=1 / ref=3 / deblock=1:0:0 / analyse=0x3:0x133 / me=hex / subme=7 / psy=1 / 
										   psy_rd=1.00:0.20 / mixed_ref=1 / me_range=16 / chroma_me=1 / trellis=1 / 8x8dct=1 / 
										   cqm=0 / deadzone=21,11 / fast_pskip=1 / chroma_qp_offset=-3 / threads=6 / sliced_threads=0 / 
										   nr=0 / decimate=1 / interlaced=0 / bluray_compat=0 / constrained_intra=0 / bframes=3 / 
										   b_pyramid=1 / b_adapt=2 / b_bias=0 / direct=3 / weightb=1 / open_gop=0 / weightp=2 / 
										   keyint=250 / keyint_min=25 / scenecut=40 / intra_refresh=0 / rc_lookahead=40 / rc=cbr / 
										   mbtree=1 / bitrate=1420 / ratetol=1.0 / qcomp=0.60 / qpmin=10 / qpmax=51 / qpstep=4 / 
										   vbv_maxrate=1420 / vbv_bufsize=31250 / nal_hrd=none / ip_ratio=1.40 / aq=1:1.00

Audio
ID                                       : 2
Format                                   : AAC
Format/Info                              : Advanced Audio Codec
Format profile                           : LC
Codec ID                                 : 40
Duration                                 : 1h 25mn
Bit rate mode                            : Constant
Bit rate                                 : 192 Kbps
Channel(s)                               : 6 channels
Channel positions                        : Front: L C R, Side: L R, LFE
Sampling rate                            : 48.0 KHz
Compression mode                         : Lossy
Stream size                              : 117 MiB (12%)



